<svg width="27" height="13" viewBox="0 0 27 13" fill="none" xmlns="http://www.w3.org/2000/svg">
<path opacity="0.4" fill-rule="evenodd" clip-rule="evenodd" d="M3.25301 0.975903H21.1446C22.4022 0.975903 23.4217 1.9954 23.4217 3.25301V9.43373C23.4217 10.6913 22.4022 11.7108 21.1446 11.7108H3.25301C1.9954 11.7108 0.975903 10.6913 0.975903 9.43373V3.25301C0.975903 1.9954 1.9954 0.975903 3.25301 0.975903ZM0 3.25301C0 1.45642 1.45642 0 3.25301 0H21.1446C22.9412 0 24.3976 1.45642 24.3976 3.25301V9.43373C24.3976 11.2303 22.9412 12.6867 21.1446 12.6867H3.25301C1.45642 12.6867 0 11.2303 0 9.43373V3.25301ZM27 6.34337C27 7.34321 26.306 8.18097 25.3735 8.40125V4.28549C26.306 4.50578 27 5.34353 27 6.34337Z" fill="white"/>
</svg>
