<svg width="19" height="11" viewBox="0 0 19 11" fill="none" xmlns="http://www.w3.org/2000/svg">
<path fill-rule="evenodd" clip-rule="evenodd" d="M15.8499 0C15.2976 0 14.8499 0.447713 14.8499 0.999995V9.99996C14.8499 10.5522 15.2976 11 15.8499 11H17.1499C17.7022 11 18.1499 10.5522 18.1499 9.99996V0.999996C18.1499 0.447713 17.7022 0 17.1499 0H15.8499ZM9.90001 3.1999C9.90001 2.64762 10.3477 2.1999 10.9 2.1999H12.2C12.7523 2.1999 13.2 2.64762 13.2 3.1999V9.99987C13.2 10.5522 12.7523 10.9999 12.2 10.9999H10.9C10.3477 10.9999 9.90001 10.5522 9.90001 9.99987V3.1999ZM5.9499 4.40003C5.39761 4.40003 4.9499 4.84774 4.9499 5.40002V10C4.9499 10.5523 5.39761 11 5.94989 11H7.24989C7.80217 11 8.24989 10.5523 8.24989 10V5.40002C8.24989 4.84774 7.80217 4.40003 7.24989 4.40003H5.9499ZM1.1 11C0.492485 11 0 10.5075 0 9.89996V7.14997C0 6.54246 0.492485 6.04998 1.1 6.04998H2.19999C2.8075 6.04998 3.29999 6.54246 3.29999 7.14997V9.89996C3.29999 10.5075 2.8075 11 2.19999 11H1.1Z" fill="white"/>
</svg>
